<?xml version="1.0" encoding="UTF-8"?>
<svg id="Layer_1" data-name="Layer 1" xmlns="http://www.w3.org/2000/svg" viewBox="0 0 1300 900">
  <defs>
    <style>
      .cls-1 {
        fill: #0ead68;
      }

      .cls-1, .cls-2 {
        stroke-width: 0px;
      }

      .cls-2 {
        fill: #fff;
      }
    </style>
  </defs>
  <rect class="cls-1" x="-20" y="-21" width="1335" height="935"/>
  <g>
    <path class="cls-2" d="M532,428.9v9.83h17.29v50.74h10.45v-50.74h17.21v-9.83h-44.95Z"/>
    <path class="cls-2" d="M609.16,444.7v25.46c0,6.49-4.48,10.88-11.15,10.88-6.32,0-10.45-4.3-10.45-10.71v-25.63h-9.83v28.53c0,10.45,6.85,17.3,17.12,17.3,5.97,0,10.89-2.29,14.31-6.59v5.53h9.83v-44.77h-9.83Z"/>
    <path class="cls-2" d="M652.97,443.65c-6.32,0-11.5,2.37-15.1,6.76v-5.71h-9.84v44.77h9.84v-24.75c0-6.94,4.74-11.59,11.85-11.59s11.15,4.56,11.15,11.41v24.93h9.83v-28.18c0-10.62-7.11-17.64-17.73-17.64Z"/>
    <path class="cls-2" d="M703.97,443.65c-6.32,0-11.5,2.37-15.1,6.76v-5.71h-9.83v44.77h9.83v-24.75c0-6.94,4.74-11.59,11.85-11.59s11.15,4.56,11.15,11.41v24.93h9.84v-28.18c0-10.62-7.12-17.64-17.74-17.64Z"/>
    <path class="cls-2" d="M775.61,467.17c0-13.43-10.27-23.52-23.97-23.52s-23.88,10.09-23.88,23.44,10.27,23.44,24.14,23.44c10.63,0,19.41-5.89,23.01-14.58h-10.89c-2.28,3.43-6.76,5.71-11.94,5.71-7.02,0-12.29-4.3-13.78-10.8h37.04c.18-1.14.27-2.46.27-3.69ZM738.38,462.78c1.59-6.23,6.76-10.27,13.26-10.27s11.94,4.13,13.43,10.27h-26.69Z"/>
    <path class="cls-2" d="M782.17,426.26v63.21h9.83v-63.21h-9.83Z"/>
    <g>
      <polygon class="cls-2" points="488.67 489.47 472.67 489.47 472.67 454.81 438 454.81 438 438.81 488.67 438.81 488.67 489.47"/>
      <polygon class="cls-2" points="518 424.47 518 438.8 488.67 438.8 488.67 409.47 503 409.47 503 424.47 518 424.47"/>
    </g>
  </g>
</svg>