<?xml version="1.0" encoding="UTF-8"?>
<svg id="Layer_2" data-name="Layer 2" xmlns="http://www.w3.org/2000/svg" viewBox="0 0 581.5 133.15">
  <defs>
    <style>
      .cls-1 {
        fill: #0ead68;
      }

      .cls-1, .cls-2 {
        stroke-width: 0px;
      }

      .cls-2 {
        fill: #111;
      }
    </style>
  </defs>
  <g id="Layer_1-2" data-name="Layer 1">
    <g>
      <path class="cls-2" d="M154.41,31.91v16.15h28.4v83.35h17.17V48.06h28.27v-16.15h-73.84Z"/>
      <path class="cls-2" d="M281.16,57.86v41.82c0,10.66-7.36,17.87-18.32,17.87-10.38,0-17.17-7.06-17.17-17.59v-42.1h-16.15v46.86c0,17.17,11.25,28.42,28.12,28.42,9.81,0,17.89-3.76,23.51-10.83v9.08h16.15V57.86h-16.15Z"/>
      <path class="cls-2" d="M353.12,56.14c-10.38,0-18.89,3.89-24.8,11.1v-9.38h-16.16v73.54h16.16v-40.66c0-11.4,7.79-19.04,19.47-19.04s18.32,7.49,18.32,18.74v40.95h16.15v-46.29c0-17.45-11.68-28.98-29.12-28.98Z"/>
      <path class="cls-2" d="M436.9,56.14c-10.38,0-18.89,3.89-24.8,11.1v-9.38h-16.15v73.54h16.15v-40.66c0-11.4,7.79-19.04,19.47-19.04s18.32,7.49,18.32,18.74v40.95h16.16v-46.29c0-17.45-11.7-28.98-29.14-28.98Z"/>
      <path class="cls-2" d="M554.58,94.77c0-22.06-16.87-38.64-39.37-38.64s-39.23,16.57-39.23,38.5,16.87,38.5,39.65,38.5c17.46,0,31.88-9.68,37.8-23.95h-17.89c-3.75,5.63-11.1,9.38-19.61,9.38-11.53,0-20.19-7.06-22.64-17.74h60.84c.3-1.87.44-4.04.44-6.06ZM493.42,87.56c2.61-10.23,11.1-16.87,21.78-16.87s19.61,6.78,22.06,16.87h-43.84Z"/>
      <path class="cls-2" d="M565.35,27.57v103.83h16.15V27.57h-16.15Z"/>
      <g>
        <polygon class="cls-1" points="83.23 131.41 56.94 131.41 56.94 74.47 0 74.47 0 48.18 83.23 48.18 83.23 131.41"/>
        <polygon class="cls-1" points="131.41 24.64 131.41 48.18 83.23 48.18 83.23 0 106.77 0 106.77 24.64 131.41 24.64"/>
      </g>
    </g>
  </g>
</svg>